Coordinates
version=1
nRows=10
nColumns=34
inDegrees=yes

Units are S.I. units (second, meters, Newtons, ...)
If the header above contains a line with 'inDegrees', this indicates whether rotational values are in degrees (yes) or radians (no).

endheader
time	pelvis_tilt	pelvis_list	pelvis_rotation	pelvis_tx	pelvis_ty	pelvis_tz	hip_flexion_r	hip_adduction_r	hip_rotation_r	knee_angle_r	ankle_angle_r	subtalar_angle_r	mtp_angle_r	hip_flexion_l	hip_adduction_l	hip_rotation_l	knee_angle_l	ankle_angle_l	subtalar_angle_l	mtp_angle_l	lumbar_extension	lumbar_bending	lumbar_rotation	arm_flex_r	arm_add_r	arm_rot_r	elbow_flex_r	pro_sup_r	arm_flex_l	arm_add_l	arm_rot_l	elbow_flex_l	pro_sup_l
      1.70000000	     -2.47197429	      0.96766646	     -2.80031764	     -0.09546538	      1.25684595	     -0.05444690	     -0.07485345	      1.91858303	    -14.51461024	      0.00000000	      1.98378269	      4.42873585	      0.00000000	      1.57811814	     -0.89210878	    -17.93694527	      0.00000000	     15.72245445	     16.59816326	      0.00000000	      3.10669588	      0.69880092	      2.46775279	     -4.21085984	     -6.87143773	     -0.40891324	     24.03522192	     96.92704729	      1.48815005	     -6.67024867	     14.26189133	     23.56910170	     94.30946265
      1.71666670	     -2.50174678	      0.96335723	     -2.77592298	     -0.09247867	      1.25306374	     -0.05456341	     -0.05655632	      1.91531823	    -14.50873911	      0.00000000	      1.98150748	      4.43132796	      0.00000000	      1.51959184	     -0.88583084	    -17.93821783	      0.00000000	     15.72019550	     16.59705387	      0.00000000	      3.09793905	      0.70085010	      2.47071874	     -4.21244543	     -6.86863072	     -0.40920991	     24.03449646	     96.92697976	      1.48313936	     -6.67573421	     14.26007609	     23.56596412	     94.30896030
      1.73333330	     -2.50196179	      0.99369496	     -2.67717784	     -0.09278737	      1.25078000	     -0.05465406	     -0.10208787	      1.88325825	    -14.46107009	      0.00000000	      1.98403060	      4.44982677	      0.00000000	      1.52982688	     -0.84324381	    -17.92773466	      0.00000000	     15.73704065	     16.59633579	      0.00000000	      3.00671532	      0.72753523	      2.50340016	     -4.35235684	     -6.85001411	     -0.41268165	     23.99962599	     96.92625757	      1.28498144	     -6.74516348	     14.24560845	     23.49147879	     94.30427812
      1.75000000	     -2.45264156	      1.00512982	     -2.68867433	     -0.09593838	      1.25226879	     -0.05378942	     -0.10367701	      1.90159325	    -14.45918514	      0.00000000	      1.98874449	      4.45011583	      0.00000000	      1.58032556	     -0.83282658	    -17.92183003	      0.00000000	     15.74205993	     16.59936497	      0.00000000	      3.00185598	      0.72534718	      2.50215523	     -4.37102996	     -6.85221005	     -0.41365625	     23.99546896	     96.92608717	      1.26432452	     -6.74731380	     14.24493008	     23.48466256	     94.30390696
      1.76666670	     -2.46759437	      1.00312014	     -2.71299019	     -0.09772004	      1.25062146	     -0.05357472	     -0.03308436	      1.94820689	    -14.44965631	      0.00000000	      2.04550814	      4.42943796	      0.00000000	      1.72775925	     -0.84242975	    -17.89189885	      0.00000000	     15.80512874	     16.60863967	      0.00000000	      2.75820928	      0.67311368	      2.52309977	     -4.51203716	     -6.85314996	     -0.42183912	     23.96083796	     96.92416914	      1.04008583	     -6.82824103	     14.23001600	     23.38282423	     94.29887153
      1.78333330	     -2.40210035	      1.01652526	     -2.71795385	     -0.09831467	      1.25090681	     -0.05362420	     -0.02204553	      1.96182837	    -14.44900727	      0.00000000	      2.05418616	      4.42631120	      0.00000000	      1.80094657	     -0.84482555	    -17.89087335	      0.00000000	     15.81463855	     16.60861840	      0.00000000	      2.74196768	      0.67351055	      2.52565461	     -4.51899402	     -6.85134789	     -0.42262169	     23.96083612	     96.92388818	      1.02540359	     -6.83725169	     14.22750841	     23.37481900	     94.29814453
      1.80000000	     -2.54546432	      1.04632419	     -2.87512164	     -0.09614767	      1.25583472	     -0.05405352	     -0.04690372	      1.91274211	    -14.67288345	      0.00000000	      1.99266176	      4.30154291	      0.00000000	      1.99743178	     -0.86036356	    -17.92101677	      0.00000000	     15.85727998	     16.59651893	      0.00000000	      2.47369029	      0.67590333	      2.55219552	     -4.65390443	     -6.81899945	     -0.42888454	     23.93968086	     96.92100845	      0.80043810	     -6.96046035	     14.19761831	     23.25657707	     94.29000464
      1.81666670	     -2.64432217	      1.09912411	     -3.09811645	     -0.09717929	      1.25466484	     -0.05417198	     -0.04242220	      1.85973533	    -16.37398395	      0.00000000	      1.12805124	      3.45618102	      0.00000000	      2.24262088	     -0.83406110	    -18.46464503	      0.00000000	     16.13871293	     16.43803311	      0.00000000	      2.51254467	      0.65019585	      2.60032826	     -4.66001223	     -6.87975343	     -0.49692775	     24.13354477	     96.90104649	      0.62782457	     -6.95267320	     14.03774879	     23.16980722	     94.24126009
      1.83333330	     -2.87879460	      1.12242578	     -3.00168342	     -0.09575650	      1.25323113	     -0.05498936	      0.09432362	      1.83417900	    -18.41139791	      0.00000000	     -1.52815992	      2.34584317	      0.00000000	      2.54972676	     -0.80205922	    -18.45220102	      0.00000000	     15.93918270	     17.04910050	      0.00000000	      2.55775630	      0.59376918	      2.44641784	     -5.00229081	     -6.86257747	     -0.61842380	     24.40881601	     96.86196462	      0.41206189	     -6.95241003	     13.63382222	     23.06317313	     94.12782078
      1.85000000	     -3.13843696	      1.15491555	     -3.23871625	     -0.09457992	      1.25423735	     -0.05518866	      0.29424854	      1.79362472	    -19.78903878	      0.00000000	     -3.11651318	      1.25324396	      0.00000000	      2.81777812	     -0.76279241	    -18.80939960	      0.00000000	     16.10945459	     17.32645108	      0.00000000	      2.79920421	      0.72950415	      2.44068629	     -5.19538782	     -6.92222299	     -0.74615359	     24.68160173	     96.82969224	      0.07772641	     -6.88173168	     13.19442236	     23.03150292	     94.01297072
